<?xml version="1.0" encoding="UTF-8" standalone="no"?>
<!-- Created with Inkscape (http://www.inkscape.org/) -->

<svg
   xmlns:dc="http://purl.org/dc/elements/1.1/"
   xmlns:cc="http://creativecommons.org/ns#"
   xmlns:rdf="http://www.w3.org/1999/02/22-rdf-syntax-ns#"
   xmlns:svg="http://www.w3.org/2000/svg"
   xmlns="http://www.w3.org/2000/svg"
   xmlns:sodipodi="http://sodipodi.sourceforge.net/DTD/sodipodi-0.dtd"
   xmlns:inkscape="http://www.inkscape.org/namespaces/inkscape"
   width="210mm"
   height="231mm"
   viewBox="0 0 210 231"
   version="1.1"
   id="svg4582"
   inkscape:version="0.92.1 r15371"
   sodipodi:docname="lico.svg">
  <defs
     id="defs4576" />
  <sodipodi:namedview
     id="base"
     pagecolor="#ffffff"
     bordercolor="#666666"
     borderopacity="1.0"
     inkscape:pageopacity="0.0"
     inkscape:pageshadow="2"
     inkscape:zoom="0.35"
     inkscape:cx="-110"
     inkscape:cy="560"
     inkscape:document-units="mm"
     inkscape:current-layer="layer1"
     showgrid="false"
     inkscape:window-width="1366"
     inkscape:window-height="745"
     inkscape:window-x="-8"
     inkscape:window-y="-8"
     inkscape:window-maximized="1" />
  <metadata
     id="metadata4579">
    <rdf:RDF>
      <cc:Work
         rdf:about="">
        <dc:format>image/svg+xml</dc:format>
        <dc:type
           rdf:resource="http://purl.org/dc/dcmitype/StillImage" />
        <dc:title></dc:title>
      </cc:Work>
    </rdf:RDF>
  </metadata>
  <g
     inkscape:label="Calque 1"
     inkscape:groupmode="layer"
     id="layer1"
     transform="translate(0,-66)">
    <path
       d="m 2.3149777,178.89504 c 17.7895683,2.2132 35.5787613,4.45436 53.7370643,6.72448 a 0.58458916,0.58458916 0 0 1 0.482455,0.79433 C 44.816562,216.82869 31.822054,246.53468 19.790373,276.5812 a 0.6069712,0.6069712 0 0 0 0.141935,0.65237 c 1.673721,1.58878 3.262462,3.09254 4.936571,4.65321 a 0.6183519,0.6183519 0 0 0 0.85124,-0.0286 q 21.535346,-23.02427 43.09912,-46.02014 a 0.60014278,0.60014278 0 0 1 0.879364,0 c 0.227619,0.2839 0.425689,0.51044 0.624412,0.76565 6.752557,8.70999 13.533567,17.39231 20.229593,26.1023 a 1.6612044,1.6612044 0 0 0 2.298133,0.62513 q 16.937949,-6.97996 33.933139,-13.84625 c 2.44039,-0.99363 4.85199,-1.95797 7.32161,-2.95103 a 0.60924734,0.60924734 0 0 1 0.73783,0.22809 c 9.55979,16.19855 19.03804,32.2309 28.54283,48.2895 a 0.55424055,0.55424055 0 0 0 0.6525,0.25521 c 4.51094,-1.19148 8.90881,-2.35471 13.42014,-3.57473 a 0.55613745,0.55613745 0 0 0 0.42569,-0.65238 q -3.7454,-26.68427 -7.4354,-53.11304 a 0.59407312,0.59407312 0 0 1 1.05011,-0.45451 q 11.61782,12.72474 23.23714,25.36505 c 0.51059,0.53911 1.13469,1.30476 1.75908,1.33342 2.61,0.11479 5.24879,0.086 7.94411,0.0574 a 0.56903555,0.56903555 0 0 0 0.53868,-0.76562 Q 184.55046,203.02725 163.92368,142.09788 a 0.56903555,0.56903555 0 0 1 0.56907,-0.76565 c 14.52635,0.70973 28.76931,1.41803 43.01227,2.09935 a 0.57889888,0.57889888 0 0 0 0.34139,-1.0782 c -10.15729,-6.32739 -20.31495,-12.68281 -30.55721,-19.06619 a 0.57586398,0.57586398 0 0 1 -0.19871,-0.76564 c 0.17025,-0.31113 0.31214,-0.6237 0.48248,-0.90759 9.1903,-15.94475 18.32635,-31.890653 27.63235,-47.779204 a 6.9240246,6.9240246 0 0 0 1.10662,-5.418437 0.58990021,0.58990021 0 0 0 -1.07821,-0.170621 2.6175635,2.6175635 0 0 1 -0.22761,0.368485 q -13.19284,16.683443 -26.3573,33.366027 c -3.77346,4.79474 -7.54693,9.55979 -11.40575,14.44128 a 0.6069712,0.6069712 0 0 1 -0.76593,0.14338 c -3.57504,-2.2413 -7.12164,-4.39744 -10.58407,-6.63874 a 1.7583198,1.7583198 0 0 0 -2.41156,0.086 c -10.15767,7.46159 -20.34303,14.86697 -30.5003,22.35709 a 4.2260373,4.2260373 0 0 0 -1.39034,2.09965 c -3.97228,15.91708 -7.85917,31.86226 -11.7745,47.80775 -0.51102,2.09936 -1.04968,4.19914 -1.61758,6.44045 a 0.59938416,0.59938416 0 0 1 -0.96437,0.31256 7.387978,7.387978 0 0 1 -0.82286,-0.79432 Q 89.557872,168.40257 72.704943,148.54198 a 2.3539104,2.3539104 0 0 0 -2.780307,-0.65238 q -29.704743,13.15016 -59.466818,26.18748 c -2.7803198,1.22015 -5.5325523,2.46841 -8.3128593,3.68842 a 0.59824601,0.59824601 0 0 0 0.169618,1.13413 z"
       id="path66"
       inkscape:connector-curvature="0"
       style="stroke-width:3.79357028" />
  </g>
</svg>
