<?xml version="1.0" encoding="UTF-8"?>
<svg id="Calque_1" data-name="Calque 1" xmlns="http://www.w3.org/2000/svg" viewBox="0 0 60.25 66.39">
  <defs>
    <style>
      .cls-1 {
        fill: #1a171b;
      }
    </style>
  </defs>
  <path class="cls-1" d="M59.72.13c.14.55,0,1.04-.32,1.58-2.72,4.64-5.39,9.3-8.07,13.95-.05.08-.09.17-.14.27-.04.08-.02.18.06.22,2.99,1.86,5.96,3.72,8.92,5.57.16.09.08.32-.1.31-4.16-.2-8.32-.41-12.56-.61-.12,0-.21.11-.17.22,4.01,11.86,8.01,23.68,11.99,35.45.04.11-.04.22-.16.22-.79,0-1.56.02-2.32-.02-.18,0-.36-.23-.51-.39-2.26-2.46-4.52-4.93-6.79-7.41h0c-.12-.13-.33-.04-.31.13.72,5.15,1.44,10.31,2.17,15.51.02.09-.04.17-.12.19-1.32.36-2.6.7-3.92,1.04-.07.02-.15,0-.19-.07-2.78-4.69-5.54-9.37-8.33-14.1-.04-.07-.13-.1-.22-.07-.72.29-1.42.57-2.14.86-3.31,1.34-6.61,2.68-9.91,4.04-.3.12-.46.08-.67-.18-1.96-2.54-3.94-5.08-5.91-7.62-.06-.07-.12-.14-.18-.22-.07-.07-.18-.07-.26,0-4.21,4.49-8.39,8.96-12.58,13.44-.07.07-.18.07-.25,0-.49-.46-.95-.89-1.44-1.36-.05-.04-.07-.12-.04-.19,3.51-8.77,7.31-17.45,10.73-26.33.04-.11-.03-.22-.14-.23-5.3-.66-10.5-1.32-15.69-1.96-.17-.02-.21-.27-.05-.33.81-.36,1.62-.72,2.43-1.08,5.79-2.54,11.58-5.09,17.37-7.65.29-.12.61-.05.81.19,3.27,3.87,6.56,7.73,9.84,11.59.07.08.15.15.24.23.1.08.25.03.28-.09.17-.65.32-1.27.47-1.88,1.14-4.66,2.28-9.31,3.44-13.96.05-.21.23-.49.41-.61,2.97-2.19,5.94-4.35,8.91-6.53.26-.19.43-.21.7-.02,1.01.65,2.05,1.28,3.09,1.94.07.04.17.02.22-.04,1.13-1.42,2.23-2.82,3.33-4.22,2.57-3.25,5.13-6.5,7.7-9.74.02-.03.05-.07.07-.11.08-.13.27-.1.31.05"/>
</svg>