<?xml version="1.0" encoding="UTF-8"?>
<svg id="Calque_1" data-name="Calque 1" xmlns="http://www.w3.org/2000/svg" viewBox="0 0 98.8 155.08">
  <defs>
    <style>
      .cls-1, .cls-2 {
        fill: #1a171b;
      }

      .cls-2 {
        font-family: Stereonic-L, Stereonic;
        font-size: 21.8px;
      }
    </style>
  </defs>
  <g>
    <path class="cls-1" d="M38.14,123.59v-2.29h8.39v2.29h-3.06v12.97h-2.29v-12.97h-3.04Z"/>
    <path class="cls-1" d="M48.12,136.56v-15.26h2.29v15.26h-2.29Z"/>
    <path class="cls-1" d="M54.78,134.39c-1.51-1.52-2.27-3.34-2.27-5.46s.76-3.94,2.27-5.46c1.51-1.52,3.33-2.28,5.47-2.28s3.94.76,5.46,2.28c1.52,1.52,2.28,3.34,2.28,5.46s-.76,3.94-2.28,5.46c-1.52,1.52-3.34,2.28-5.46,2.28s-3.96-.76-5.47-2.28ZM56.41,125.09c-1.07,1.07-1.6,2.35-1.6,3.85s.53,2.78,1.6,3.85c1.07,1.07,2.35,1.6,3.85,1.6s2.78-.53,3.85-1.6,1.6-2.35,1.6-3.85-.53-2.78-1.6-3.85-2.35-1.6-3.85-1.6-2.78.53-3.85,1.6Z"/>
    <path class="cls-1" d="M70.1,136.56v-15.26h1.64l4.58,8.94v-8.94h2.29v15.26h-1.64l-4.58-8.96v8.96h-2.29Z"/>
    <path class="cls-1" d="M80.03,136.56l4.33-15.26h1.64l4.33,15.26h-2.37l-.56-2h-4.43l-.56,2h-2.37ZM86.74,132.27l-1.54-5.48-1.58,5.48h3.12Z"/>
    <path class="cls-1" d="M91.69,136.56v-15.26h2.29v12.97h4.36v2.29h-6.65Z"/>
  </g>
  <g>
    <path class="cls-1" d="M0,140.69v-.87h8.6v.87H0ZM0,155.08v-.87h8.6v.87H0ZM.64,142.87h2.68c1.28,0,2.37.45,3.28,1.34s1.36,1.97,1.36,3.24-.45,2.34-1.36,3.24-2,1.34-3.28,1.34H.64v-9.15ZM1.62,151.04h1.69c1.01,0,1.88-.35,2.59-1.06s1.07-1.55,1.07-2.54-.36-1.83-1.06-2.54-1.57-1.06-2.6-1.06h-1.69v7.19Z"/>
    <path class="cls-1" d="M8.59,140.69v-.87h7.09v.87h-7.09ZM8.59,155.08v-.87h7.09v.87h-7.09ZM9.61,149.59v-6.72h.98v6.72c0,.42.15.78.45,1.07s.66.45,1.08.45.79-.15,1.09-.45c.3-.3.46-.66.46-1.07v-6.72h.98v6.72c0,.68-.25,1.27-.74,1.76-.49.49-1.09.74-1.78.74s-1.27-.25-1.77-.74c-.5-.49-.74-1.08-.74-1.76Z"/>
  </g>
  <g>
    <path class="cls-1" d="M19.19,155.08v-15.26h6.65v2.29h-4.36v5.34h3.49v2.29h-3.49v5.34h-2.29Z"/>
    <path class="cls-1" d="M27.9,155.08v-15.26h2.29v15.26h-2.29Z"/>
    <path class="cls-1" d="M32.89,155.08v-15.26h2.29v12.97h4.36v2.29h-6.65Z"/>
    <path class="cls-1" d="M49.78,155.08v-8.48l-2.35,4.99h-1.6l-2.37-5.01v8.5h-2.29v-15.26h1.64l3.81,8.11,3.81-8.11h1.64v15.26h-2.29Z"/>
  </g>
  <g>
    <path class="cls-1" d="M55.31,155.08v-1.32h8.05v1.32h-8.05ZM56.22,144.38h2.52c1.15,0,2.13.4,2.95,1.21.82.81,1.23,1.77,1.23,2.9s-.41,2.09-1.23,2.9c-.82.81-1.8,1.21-2.95,1.21h-2.52v-8.22ZM57.76,151.06h.98c.73,0,1.35-.25,1.86-.75.51-.5.77-1.11.77-1.82s-.26-1.32-.77-1.82c-.51-.5-1.13-.75-1.86-.75h-.98v5.14Z"/>
    <path class="cls-1" d="M63.35,155.08v-1.32h3.42v1.32h-3.42ZM66.1,145.35c0,.08-.02.17-.05.28-.03.11-.08.22-.13.33-.06.11-.12.23-.19.35-.07.12-.15.24-.22.35-.07.11-.14.22-.22.33s-.14.2-.2.27c-.06.07-.11.14-.15.2l-.06.08h-.72l.48-1.23c-.19-.08-.34-.2-.45-.37-.11-.17-.17-.37-.17-.58,0-.28.1-.52.3-.73.2-.2.44-.3.73-.3s.53.1.73.3c.21.2.31.45.31.73Z"/>
    <path class="cls-1" d="M66.05,155.08v-1.32h6.18v1.32h-6.18ZM66.24,152.6l2.34-8.22h1.09l2.37,8.22h-1.61l-.26-.88h-2.08l-.25.88h-1.6ZM69.73,150.17l-.6-2.08-.6,2.08h1.2Z"/>
    <path class="cls-1" d="M72.23,155.08v-1.32h7.28v1.32h-7.28ZM77.3,152.6v-3.67l-.9,1.89h-1.07l-.88-1.85v3.63h-1.54v-8.22h1.09l1.86,3.98,1.89-3.98h1.09v8.22h-1.54Z"/>
    <path class="cls-1" d="M79.5,155.08v-1.32h2.87v1.32h-2.87ZM80.18,152.6v-8.22h1.54v8.22h-1.54Z"/>
    <path class="cls-1" d="M82.38,155.08v-1.32h4.77v1.32h-4.77ZM83.05,152.6v-8.22h3.66v1.54h-2.12v2.41h1.65v1.54h-1.65v1.19h2.12v1.54h-3.66Z"/>
    <path class="cls-1" d="M87.14,155.08v-1.32h5.99v1.32h-5.99ZM87.82,152.6v-8.22h1.09l2.01,3.93v-3.93h1.54v8.22h-1.08l-2.01-3.93v3.93h-1.54Z"/>
    <path class="cls-1" d="M93.13,155.08v-1.32h5.67v1.32h-5.67ZM95.27,146.48c0,.23.1.42.29.54l1.61,1c.36.22.65.53.87.9.22.38.32.79.32,1.23,0,.69-.24,1.28-.73,1.77s-1.07.73-1.75.73-1.27-.25-1.76-.74-.73-1.1-.73-1.81h1.54c0,.28.09.52.28.72.19.2.41.29.67.29s.47-.09.66-.28.28-.41.28-.68c0-.34-.16-.61-.47-.8l-1.59-.99c-.31-.2-.57-.46-.76-.78-.19-.33-.28-.69-.28-1.08,0-.61.21-1.12.63-1.55.42-.43.93-.64,1.53-.64s1.11.21,1.53.63c.43.42.64.93.64,1.53h-1.54c0-.17-.06-.31-.19-.43-.13-.12-.27-.18-.44-.18s-.31.06-.43.18c-.12.12-.18.27-.18.43Z"/>
  </g>
  <text class="cls-2" transform="translate(92.25 117.5)"><tspan x="0" y="0"> </tspan></text>
  <g>
    <path class="cls-1" d="M.68,117.5v-15.26h2.29v15.26H.68Z"/>
    <path class="cls-1" d="M5.66,117.5v-15.26h1.64l4.58,8.94v-8.94h2.29v15.26h-1.64l-4.58-8.96v8.96h-2.29Z"/>
    <path class="cls-1" d="M15.77,104.53v-2.29h8.39v2.29h-3.05v12.97h-2.29v-12.97h-3.04Z"/>
    <path class="cls-1" d="M25.77,117.5v-15.26h6.65v2.29h-4.36v5.34h3.49v2.29h-3.49v3.05h4.36v2.29h-6.65Z"/>
    <path class="cls-1" d="M41.46,117.5l-2.2-5.58c-.1.01-.26.02-.48.02h-1.96v5.56h-2.29v-15.26h4.25c1.35,0,2.5.48,3.46,1.43.96.95,1.44,2.1,1.44,3.43,0,.84-.2,1.62-.61,2.34-.41.71-.95,1.29-1.63,1.74l2.47,6.32h-2.45ZM41.39,107.1c0-.71-.25-1.32-.76-1.82-.51-.5-1.13-.76-1.86-.76h-1.96v5.13h1.96c.71,0,1.32-.25,1.84-.76.52-.5.78-1.1.78-1.8Z"/>
    <path class="cls-1" d="M45.64,117.5v-15.26h1.64l4.58,8.94v-8.94h2.29v15.26h-1.64l-4.58-8.96v8.96h-2.29Z"/>
    <path class="cls-1" d="M55.75,117.5l4.33-15.26h1.64l4.33,15.26h-2.37l-.56-2h-4.43l-.56,2h-2.37ZM62.45,113.21l-1.54-5.48-1.57,5.48h3.12Z"/>
    <path class="cls-1" d="M66.65,110.68v-1.64h3.94v1.64h-3.94Z"/>
  </g>
  <path class="cls-1" d="M78.1.13c.14.55,0,1.04-.32,1.58-2.72,4.64-5.39,9.3-8.07,13.95-.05.08-.09.17-.14.27-.04.08-.02.18.06.22,2.99,1.86,5.96,3.72,8.92,5.57.16.09.08.32-.1.31-4.16-.2-8.32-.41-12.56-.61-.12,0-.21.11-.17.22,4.01,11.86,8.01,23.68,11.99,35.45.04.11-.04.22-.16.22-.79,0-1.56.02-2.32-.02-.18,0-.36-.23-.51-.39-2.26-2.46-4.52-4.93-6.79-7.41h0c-.12-.13-.33-.04-.31.13.72,5.15,1.44,10.31,2.17,15.51.02.09-.04.17-.12.19-1.32.36-2.6.7-3.92,1.04-.07.02-.15,0-.19-.07-2.78-4.69-5.54-9.37-8.33-14.1-.04-.07-.13-.1-.22-.07-.72.29-1.42.57-2.14.86-3.31,1.34-6.61,2.68-9.91,4.04-.3.12-.46.08-.67-.18-1.96-2.54-3.94-5.08-5.91-7.62-.06-.07-.12-.14-.18-.22-.07-.07-.18-.07-.26,0-4.21,4.49-8.39,8.96-12.58,13.44-.07.07-.18.07-.25,0-.49-.46-.95-.89-1.44-1.36-.05-.04-.07-.12-.04-.19,3.51-8.77,7.31-17.45,10.73-26.33.04-.11-.03-.22-.14-.23-5.3-.66-10.5-1.32-15.69-1.96-.17-.02-.21-.27-.05-.33.81-.36,1.62-.72,2.43-1.08,5.79-2.54,11.58-5.09,17.37-7.65.29-.12.61-.05.81.19,3.27,3.87,6.56,7.73,9.84,11.59.07.08.15.15.24.23.1.08.25.03.28-.09.17-.65.32-1.27.47-1.88,1.14-4.66,2.28-9.31,3.44-13.96.05-.21.23-.49.41-.61,2.97-2.19,5.94-4.35,8.91-6.53.26-.19.43-.21.7-.02,1.01.65,2.05,1.28,3.09,1.94.07.04.17.02.22-.04,1.13-1.42,2.23-2.82,3.33-4.22,2.57-3.25,5.13-6.5,7.7-9.74.02-.03.05-.07.07-.11.08-.13.27-.1.31.05"/>
  <g>
    <path class="cls-1" d="M45.65,98.52v-12.17h5.41v2.28h-3.13v3.56h2.44v2.28h-2.44v4.04h-2.28Z"/>
    <path class="cls-1" d="M52.33,98.52v-12.17h5.41v2.28h-3.13v3.56h2.44v2.28h-2.44v1.76h3.13v2.28h-5.41Z"/>
    <path class="cls-1" d="M61.09,89.46c0,.35.14.62.43.81l2.39,1.47c.54.33.97.78,1.28,1.34.32.56.48,1.16.48,1.81,0,1.03-.36,1.9-1.08,2.63-.72.73-1.58,1.09-2.59,1.09s-1.88-.37-2.6-1.11c-.73-.74-1.09-1.63-1.09-2.67h2.28c0,.42.14.77.41,1.06.28.29.61.44,1,.44s.7-.14.98-.41c.28-.28.41-.61.41-1,0-.51-.23-.91-.69-1.2l-2.36-1.45c-.47-.29-.84-.68-1.12-1.16-.28-.48-.42-1.02-.42-1.6,0-.9.31-1.66.93-2.29.62-.63,1.38-.94,2.26-.94s1.64.31,2.27.93c.63.62.94,1.38.94,2.26h-2.28c0-.25-.09-.46-.28-.64-.19-.18-.41-.27-.65-.27s-.46.09-.64.27c-.18.18-.27.39-.27.64Z"/>
    <path class="cls-1" d="M65.67,88.63v-2.28h6.68v2.28h-2.21v9.89h-2.29v-9.89h-2.19Z"/>
    <path class="cls-1" d="M73.43,98.52v-12.17h2.28v12.17h-2.28Z"/>
    <path class="cls-1" d="M76.49,86.35h2.37l1.91,6.67,1.93-6.67h2.38l-3.5,12.17h-1.59l-3.49-12.17Z"/>
    <path class="cls-1" d="M83.48,98.52l3.47-12.17h1.61l3.5,12.17h-2.38l-.39-1.31h-3.08l-.37,1.31h-2.37ZM88.65,94.93l-.89-3.09-.89,3.09h1.78Z"/>
    <path class="cls-1" d="M92.99,98.52v-12.17h2.28v9.89h3.13v2.28h-5.41Z"/>
  </g>
</svg>