<?xml version="1.0" encoding="UTF-8" standalone="no"?>
<!-- Created with Inkscape (http://www.inkscape.org/) -->

<svg
   xmlns:dc="http://purl.org/dc/elements/1.1/"
   xmlns:cc="http://creativecommons.org/ns#"
   xmlns:rdf="http://www.w3.org/1999/02/22-rdf-syntax-ns#"
   xmlns:svg="http://www.w3.org/2000/svg"
   xmlns="http://www.w3.org/2000/svg"
   xmlns:sodipodi="http://sodipodi.sourceforge.net/DTD/sodipodi-0.dtd"
   xmlns:inkscape="http://www.inkscape.org/namespaces/inkscape"
   width="64px"
   height="64px"
   viewBox="0 0 64 64"
   version="1.1"
   id="SVGRoot"
   inkscape:version="0.92.1 r15371"
   sodipodi:docname="logo.svg">
  <sodipodi:namedview
     id="base"
     pagecolor="#ffffff"
     bordercolor="#666666"
     borderopacity="1.0"
     inkscape:pageopacity="0.0"
     inkscape:pageshadow="2"
     inkscape:zoom="8"
     inkscape:cx="30.474341"
     inkscape:cy="35.002047"
     inkscape:document-units="px"
     inkscape:current-layer="layer1"
     showgrid="false"
     inkscape:window-width="1366"
     inkscape:window-height="745"
     inkscape:window-x="-8"
     inkscape:window-y="-8"
     inkscape:window-maximized="1"
     inkscape:grid-bbox="true" />
  <defs
     id="defs26" />
  <metadata
     id="metadata29">
    <rdf:RDF>
      <cc:Work
         rdf:about="">
        <dc:format>image/svg+xml</dc:format>
        <dc:type
           rdf:resource="http://purl.org/dc/dcmitype/StillImage" />
        <dc:title />
      </cc:Work>
    </rdf:RDF>
  </metadata>
  <g
     id="layer1"
     inkscape:groupmode="layer"
     inkscape:label="Calque 1">
    <path
       inkscape:connector-curvature="0"
       class="a"
       d="m 1.7063951,31.2566 c 5.249805,0.598 10.4994979,1.203586 15.8581189,1.816961 a 0.17251566,0.15795658 0 0 1 0.142401,0.214641 c -3.458038,8.21815 -7.292789,16.244722 -10.8434099,24.363342 a 0.17912074,0.16400423 0 0 0 0.041981,0.176304 c 0.4939255,0.429281 0.962774,0.835602 1.4568114,1.257298 a 0.18247926,0.16707931 0 0 0 0.2512169,-0.0077 Q 14.968719,52.856265 21.332319,46.642759 a 0.17710563,0.16215919 0 0 1 0.259501,0 c 0.06717,0.07667 0.125608,0.138071 0.18427,0.207056 1.992719,2.35346 3.993833,4.699439 5.969871,7.052899 a 0.49023108,0.44885909 0 0 0 0.678196,0.16872 q 4.998478,-1.886049 10.013859,-3.741347 c 0.720177,-0.268352 1.431846,-0.529016 2.160644,-0.797368 a 0.17979244,0.16461925 0 0 1 0.217744,0.0615 c 2.821151,4.376863 5.618234,8.708829 8.423153,13.047869 a 0.16355963,0.14975637 0 0 0 0.192554,0.06898 c 1.331203,-0.321961 2.629045,-0.636234 3.96036,-0.965882 a 0.16411938,0.15026888 0 0 0 0.125608,-0.176305 Q 52.412792,54.358749 51.32385,47.217697 a 0.17531443,0.16051914 0 0 1 0.309879,-0.123003 q 3.428483,3.438246 6.857414,6.853634 c 0.150685,0.145656 0.334844,0.352712 0.519114,0.360297 0.770219,0.03075 1.548947,0.02296 2.344355,0.01537 A 0.1679257,0.15375397 0 0 0 61.513581,54.11694 Q 55.485273,37.77669 49.39819,21.313535 a 0.1679257,0.15375397 0 0 1 0.167926,-0.206953 c 4.286807,0.191578 8.489987,0.383258 12.693167,0.56725 a 0.17083641,0.15641904 0 0 0 0.100756,-0.291312 c -2.997474,-1.709642 -5.995059,-3.426869 -9.01761,-5.151681 a 0.1699408,0.15559902 0 0 1 -0.05866,-0.207055 c 0.05027,-0.08426 0.09214,-0.168617 0.142401,-0.245289 2.71211,-4.308289 5.408213,-8.6168851 8.15447,-12.9100035 A 2.0433199,1.8708783 0 0 0 61.907199,1.4044462 0.17408297,0.15939162 0 0 0 61.589036,1.35832 0.7724582,0.70726826 0 0 1 61.521866,1.4579526 Q 57.628564,5.965814 53.74366,10.47347 c -1.113572,1.295531 -2.227143,2.583067 -3.365903,3.902071 a 0.17912074,0.16400423 0 0 1 -0.226028,0.03834 C 49.096708,13.808295 48.050083,13.22567 47.028311,12.620085 a 0.5188904,0.47509977 0 0 0 -0.711669,0.02306 c -2.997586,2.016124 -6.003344,4.017079 -9.000817,6.040891 a 1.2471282,1.1418795 0 0 0 -0.410299,0.567352 c -1.172233,4.300806 -2.319278,8.609197 -3.474718,12.917691 -0.150798,0.56725 -0.309767,1.134602 -0.477357,1.740188 a 0.17688173,0.16195418 0 0 1 -0.284578,0.08436 2.1802353,1.996239 0 0 1 -0.242821,-0.21464 q -4.973625,-5.358839 -9.947025,-10.72516 a 0.69465263,0.63602892 0 0 0 -0.820484,-0.176304 q -8.766058,3.553151 -17.5490193,7.07586 c -0.8204849,0.329648 -1.6326855,0.666985 -2.4531705,0.996633 a 0.17654588,0.16164667 0 0 0 0.050042,0.306586 z"
       id="path3748"
       style="stroke-width:0.1;fill:#ffffff;stroke:#000000;stroke-opacity:1;stroke-miterlimit:4;stroke-dasharray:none;fill-opacity:1" />
  </g>
</svg>
